<svg width="16" height="20" viewBox="0 0 16 20" fill="none" xmlns="http://www.w3.org/2000/svg">
<path d="M14.8448 8.44098V8.44353V8.52321C14.7952 11.0102 13.3972 13.3836 11.5742 15.3081C10.5357 16.3862 9.37608 17.3407 8.11846 18.1526L8.07432 18.1811L8.03458 18.2154C7.96681 18.274 7.86628 18.274 7.7985 18.2154L7.75983 18.182L7.71698 18.1541C5.84223 16.9338 4.19681 15.3932 2.85601 13.6027L2.85604 13.6026L2.85125 13.5964C1.70657 12.1008 1.05556 10.2863 0.988281 8.40431V8.39265C1.00195 4.56686 4.11412 1.47618 7.94008 1.48918C11.7665 1.50218 14.8578 4.61461 14.8448 8.44098Z" stroke="#DE5753" stroke-width="1.5"/>
<circle cx="7.9179" cy="8.53912" r="2.46087" stroke="#DE5753" stroke-width="1.5"/>
</svg>
